mtllib testworld.mtl
o Default
v 9 1 1
v 9 2 2
v 9 1 2
v 9 2 1
v 5 2 0
v 6 1 0
v 5 1 0
v 6 2 0
v 1 0 0
v 0 1 0
v 1 1 0
v 0 0 0
v 0 1 1
v 0 0 1
v 0 1 2
v 0 2 1
v 0 2 2
v 1 0 1
v 0 0 2
v 1 0 3
v 0 0 3
v 1 0 2
v 2 0 3
v 2 0 2
v 1 0 4
v 0 0 4
v 1 1 3
v 2 1 2
v 1 1 2
v 2 1 3
v 0 1 3
v 1 1 4
v 1 2 5
v 1 1 5
v 1 2 4
v 0 0 5
v 0 1 4
v 0 1 5
v 2 1 4
v 1 1 8
v 2 2 8
v 2 1 8
v 1 2 8
v 2 1 6
v 3 1 5
v 2 1 5
v 3 1 6
v 1 0 5
v 1 0 6
v 2 0 5
v 2 0 6
v 3 1 1
v 2 1 1
v 3 1 2
v 1 1 1
v 2 0 0
v 2 1 0
v 2 0 1
v 3 0 2
v 3 0 3
v 2 0 4
v 3 1 3
v 3 1 4
v 0 0 6
v 0 1 6
v 2 2 1
v 1 2 1
v 0 0 7
v 0 1 7
v 9 1 3
v 9 2 4
v 9 1 4
v 9 2 3
v 1 1 6
v 0 1 8
v 0 2 7
v 0 2 8
v 1 0 7
v 0 2 3
v 2 1 7
v 1 1 7
v 0 0 9
v 0 1 9
v 0 0 8
v 1 0 8
v 2 0 9
v 1 0 9
v 2 0 8
v 1 1 9
v 1 2 6
v 3 1 7
v 2 0 7
v 3 1 8
v 4 2 1
v 3 2 1
v 4 1 1
v 2 1 9
v 3 0 9
v 3 1 9
v 4 1 9
v 3 2 9
v 4 2 9
v 3 0 1
v 3 0 0
v 6 1 1
v 7 2 1
v 6 2 1
v 7 1 1
v 3 1 0
v 4 1 2
v 4 1 3
v 4 1 4
v 3 0 4
v 4 1 5
v 4 1 6
v 3 0 5
v 5 1 7
v 5 1 6
v 4 1 7
v 3 0 6
v 4 0 6
v 3 0 7
v 4 0 7
v 4 1 8
v 3 0 8
v 5 1 9
v 5 2 9
v 4 0 1
v 5 0 0
v 5 0 1
v 4 0 0
v 4 1 0
v 5 1 1
v 5 1 2
v 4 0 2
v 4 0 3
v 5 1 5
v 5 1 4
v 4 0 4
v 5 0 4
v 4 0 5
v 5 0 5
v 5 0 6
v 4 0 8
v 4 0 9
v 5 1 8
v 7 3 0
v 7 2 0
v 6 3 0
v 6 0 0
v 5 0 2
v 1 2 9
v 2 2 9
v 7 1 0
v 7 0 0
v 0 2 9
v 6 0 1
v 6 1 2
v 8 1 0
v 8 0 0
v 8 1 9
v 9 2 9
v 8 2 9
v 9 1 9
v 7 0 1
v 8 0 1
v 7 0 2
v 8 0 2
v 3 2 8
v 5 2 1
v 9 0 1
v 9 0 2
v 9 1 0
v 9 0 0
v 5 1 3
v 7 1 3
v 7 1 2
v 6 1 3
v 8 1 4
v 8 1 3
v 7 1 4
v 6 0 2
v 8 1 2
v 8 1 1
v 9 0 3
v 1 2 3
v 6 1 4
v 5 0 3
v 6 0 3
v 6 1 5
v 7 1 5
v 6 0 4
v 6 1 6
v 6 0 6
v 6 0 7
v 5 0 8
v 5 0 7
v 6 0 8
v 5 0 9
v 6 0 9
v 7 0 5
v 6 0 5
v 7 0 6
v 7 0 7
v 6 1 7
v 7 0 8
v 7 0 9
v 6 1 8
v 6 1 9
v 8 2 1
v 7 0 4
v 7 0 3
v 8 0 7
v 8 0 6
v 7 1 6
v 8 1 5
v 8 1 6
v 7 1 7
v 8 1 7
v 8 0 8
v 8 0 9
v 7 1 8
v 7 1 9
v 9 2 6
v 9 1 7
v 9 1 6
v 9 2 7
v 8 0 3
v 9 0 4
v 8 0 4
v 0 2 6
v 9 0 5
v 8 0 5
v 6 2 8
v 7 2 8
v 9 0 6
v 9 1 5
v 8 2 4
v 8 2 5
v 8 1 8
v 8 2 8
v 9 2 5
v 8 2 7
v 9 0 7
v 9 0 8
v 9 0 9
v 9 1 8
v 1 2 0
v 0 3 0
v 1 3 0
v 0 2 0
v 2 2 0
v 1 3 2
v 0 3 3
v 1 3 3
v 0 3 2
v 1 2 2
v 1 3 4
v 0 2 4
v 1 3 5
v 0 2 5
v 1 3 6
v 0 3 7
v 1 3 7
v 0 3 6
v 1 2 7
v 0 3 8
v 0 3 9
v 1 3 8
v 2 3 8
v 9 3 8
v 9 2 8
v 9 3 9
v 7 2 9
v 9 3 7
v 6 3 9
v 6 2 9
v 7 3 9
v 5 3 9
v 5 2 8
v 5 3 8
v 6 3 8
v 4 3 8
v 4 2 8
v 3 3 8
v 2 3 9
v 1 3 9
v 2 3 0
v 3 2 0
v 3 3 0
v 4 2 0
v 4 3 0
v 5 3 0
v 5 3 1
v 6 3 1
v 7 3 1
v 8 2 0
v 8 3 0
v 9 2 0
v 9 3 0
v 9 3 2
v 8 3 3
v 9 3 3
v 8 3 2
v 8 2 2
v 8 2 3
v 8 3 4
v 8 3 5
v 9 3 6
v 8 2 6
v 8 3 1
v 9 3 1
v 9 3 4
v 9 3 5
v 8 3 7
v 8 3 6
v 8 3 8
v 8 3 9
v 7 3 8
v 4 3 9
v 3 3 9
v 0 3 1
v 1 3 1
v 2 3 1
v 0 3 4
v 0 3 5
v 3 3 1
v 4 3 1
vt 0.21875 0.875
vt 0.25 0.90625
vt 0.21875 0.90625
vt 0.25 0.875
vt 0.25 0.625
vt 0.28125 0.65625
vt 0.25 0.65625
vt 0.28125 0.625
vn 1 0 0
vn 0 0 -1
vn -1 0 0
vn 0 -1 0
vn 0 1 0
vn 0 0 1
g Scene
usemtl 0
f 1/1/1 2/2/1 3/3/1
f 1/1/1 4/4/1 2/2/1
f 5/1/2 6/2/2 7/3/2
f 5/1/2 8/4/2 6/2/2
f 9/5/2 10/6/2 11/7/2
f 9/5/2 12/8/2 10/6/2
f 12/5/3 13/6/3 10/7/3
f 12/5/3 14/8/3 13/6/3
f 15/1/3 16/2/3 13/3/3
f 15/1/3 17/4/3 16/2/3
f 12/5/4 18/6/4 14/7/4
f 12/5/4 9/8/4 18/6/4
f 19/5/4 20/6/4 21/7/4
f 19/5/4 22/8/4 20/6/4
f 15/5/3 14/6/3 19/7/3
f 15/5/3 13/8/3 14/6/3
f 22/5/4 23/6/4 20/7/4
f 22/5/4 24/8/4 23/6/4
f 22/5/4 14/6/4 18/7/4
f 22/5/4 19/8/4 14/6/4
f 21/5/4 25/6/4 26/7/4
f 21/5/4 20/8/4 25/6/4
f 27/5/5 28/6/5 29/7/5
f 27/5/5 30/8/5 28/6/5
f 19/5/3 31/6/3 15/7/3
f 19/5/3 21/8/3 31/6/3
f 32/1/1 33/2/1 34/3/1
f 32/1/1 35/4/1 33/2/1
f 36/5/3 37/6/3 26/7/3
f 36/5/3 38/8/3 37/6/3
f 32/5/5 30/6/5 27/7/5
f 32/5/5 39/8/5 30/6/5
f 21/5/3 37/6/3 31/7/3
f 21/5/3 26/8/3 37/6/3
f 40/1/2 41/2/2 42/3/2
f 40/1/2 43/4/2 41/2/2
f 44/5/5 45/6/5 46/7/5
f 44/5/5 47/8/5 45/6/5
f 25/5/4 36/6/4 26/7/4
f 25/5/4 48/8/4 36/6/4
f 34/5/5 39/6/5 32/7/5
f 34/5/5 46/8/5 39/6/5
f 49/5/4 50/6/4 51/7/4
f 49/5/4 48/8/4 50/6/4
f 28/5/5 52/6/5 53/7/5
f 28/5/5 54/8/5 52/6/5
f 29/5/5 53/6/5 55/7/5
f 29/5/5 28/8/5 53/6/5
f 11/5/2 56/6/2 9/7/2
f 11/5/2 57/8/2 56/6/2
f 56/5/4 18/6/4 9/7/4
f 56/5/4 58/8/4 18/6/4
f 59/5/4 23/6/4 24/7/4
f 59/5/4 60/8/4 23/6/4
f 24/5/4 18/6/4 58/7/4
f 24/5/4 22/8/4 18/6/4
f 20/5/4 61/6/4 25/7/4
f 20/5/4 23/8/4 61/6/4
f 28/5/5 62/6/5 54/7/5
f 28/5/5 30/8/5 62/6/5
f 25/5/4 50/6/4 48/7/4
f 25/5/4 61/8/4 50/6/4
f 30/5/5 63/6/5 62/7/5
f 30/5/5 39/8/5 63/6/5
f 38/5/3 64/6/3 65/7/3
f 38/5/3 36/8/3 64/6/3
f 55/1/6 66/2/6 67/3/6
f 55/1/6 53/4/6 66/2/6
f 65/5/3 68/6/3 69/7/3
f 65/5/3 64/8/3 68/6/3
f 64/5/4 48/6/4 49/7/4
f 64/5/4 36/8/4 48/6/4
f 70/1/1 71/2/1 72/3/1
f 70/1/1 73/4/1 71/2/1
f 44/5/5 34/6/5 74/7/5
f 44/5/5 46/8/5 34/6/5
f 75/1/3 76/2/3 69/3/3
f 75/1/3 77/4/3 76/2/3
f 68/5/4 49/6/4 78/7/4
f 68/5/4 64/8/4 49/6/4
f 31/1/3 17/2/3 15/3/3
f 31/1/3 79/4/3 17/2/3
f 74/5/5 80/6/5 44/7/5
f 74/5/5 81/8/5 80/6/5
f 75/5/3 82/6/3 83/7/3
f 75/5/3 84/8/3 82/6/3
f 75/5/3 68/6/3 84/7/3
f 75/5/3 69/8/3 68/6/3
f 85/5/4 86/6/4 87/7/4
f 85/5/4 88/8/4 86/6/4
f 85/5/4 68/6/4 78/7/4
f 85/5/4 84/8/4 68/6/4
f 83/5/6 87/6/6 89/7/6
f 83/5/6 82/8/6 87/6/6
f 82/5/4 85/6/4 87/7/4
f 82/5/4 84/8/4 85/6/4
f 34/1/1 90/2/1 74/3/1
f 34/1/1 33/4/1 90/2/1
f 3/1/1 73/2/1 70/3/1
f 3/1/1 2/4/1 73/2/1
f 80/5/5 47/6/5 44/7/5
f 80/5/5 91/8/5 47/6/5
f 51/5/4 78/6/4 49/7/4
f 51/5/4 92/8/4 78/6/4
f 42/5/5 91/6/5 80/7/5
f 42/5/5 93/8/5 91/6/5
f 40/5/5 80/6/5 81/7/5
f 40/5/5 42/8/5 80/6/5
f 52/1/6 94/2/6 95/3/6
f 52/1/6 96/4/6 94/2/6
f 88/5/4 78/6/4 92/7/4
f 88/5/4 85/8/4 78/6/4
f 87/5/6 97/6/6 89/7/6
f 87/5/6 86/8/6 97/6/6
f 97/5/6 98/6/6 99/7/6
f 97/5/6 86/8/6 98/6/6
f 100/1/6 101/2/6 99/3/6
f 100/1/6 102/4/6 101/2/6
f 103/5/4 56/6/4 104/7/4
f 103/5/4 58/8/4 56/6/4
f 105/1/6 106/2/6 107/3/6
f 105/1/6 108/4/6 106/2/6
f 109/5/2 56/6/2 57/7/2
f 109/5/2 104/8/2 56/6/2
f 62/5/5 110/6/5 54/7/5
f 62/5/5 111/8/5 110/6/5
f 59/5/4 58/6/4 103/7/4
f 59/5/4 24/8/4 58/6/4
f 63/5/5 111/6/5 62/7/5
f 63/5/5 112/8/5 111/6/5
f 60/5/4 61/6/4 23/7/4
f 60/5/4 113/8/4 61/6/4
f 45/5/5 112/6/5 63/7/5
f 45/5/5 114/8/5 112/6/5
f 46/5/5 63/6/5 39/7/5
f 46/5/5 45/8/5 63/6/5
f 47/5/5 114/6/5 45/7/5
f 47/5/5 115/8/5 114/6/5
f 116/5/4 61/6/4 113/7/4
f 116/5/4 50/8/4 61/6/4
f 115/5/5 117/6/5 118/7/5
f 115/5/5 119/8/5 117/6/5
f 120/5/4 50/6/4 116/7/4
f 120/5/4 51/8/4 50/6/4
f 121/5/4 122/6/4 120/7/4
f 121/5/4 123/8/4 122/6/4
f 122/5/4 51/6/4 120/7/4
f 122/5/4 92/8/4 51/6/4
f 93/5/5 119/6/5 91/7/5
f 93/5/5 124/8/5 119/6/5
f 125/5/4 92/6/4 122/7/4
f 125/5/4 88/8/4 92/6/4
f 126/1/6 102/2/6 100/3/6
f 126/1/6 127/4/6 102/2/6
f 98/5/4 88/6/4 125/7/4
f 98/5/4 86/8/4 88/6/4
f 128/5/4 129/6/4 130/7/4
f 128/5/4 131/8/4 129/6/4
f 54/5/5 96/6/5 52/7/5
f 54/5/5 110/8/5 96/6/5
f 109/5/2 131/6/2 104/7/2
f 109/5/2 132/8/2 131/6/2
f 131/5/4 103/6/4 104/7/4
f 131/5/4 128/8/4 103/6/4
f 133/5/5 110/6/5 134/7/5
f 133/5/5 96/8/5 110/6/5
f 135/5/4 103/6/4 128/7/4
f 135/5/4 59/8/4 103/6/4
f 110/5/3 136/6/3 111/7/3
f 110/5/3 135/8/3 136/6/3
f 136/5/4 59/6/4 135/7/4
f 136/5/4 60/8/4 59/6/4
f 112/5/5 137/6/5 138/7/5
f 112/5/5 114/8/5 137/6/5
f 139/5/4 60/6/4 136/7/4
f 139/5/4 113/8/4 60/6/4
f 139/5/2 138/6/2 140/7/2
f 139/5/2 112/8/2 138/6/2
f 141/5/4 113/6/4 139/7/4
f 141/5/4 116/8/4 113/6/4
f 142/5/4 121/6/4 141/7/4
f 142/5/4 143/8/4 121/6/4
f 121/5/4 116/6/4 141/7/4
f 121/5/4 120/8/4 116/6/4
f 122/5/4 144/6/4 125/7/4
f 122/5/4 123/8/4 144/6/4
f 119/5/5 47/6/5 91/7/5
f 119/5/5 115/8/5 47/6/5
f 125/5/4 145/6/4 98/7/4
f 125/5/4 144/8/4 145/6/4
f 119/5/5 146/6/5 117/7/5
f 119/5/5 124/8/5 146/6/5
f 98/5/6 100/6/6 99/7/6
f 98/5/6 145/8/6 100/6/6
f 8/1/2 147/2/2 148/3/2
f 8/1/2 149/4/2 147/2/2
f 129/5/2 6/6/2 150/7/2
f 129/5/2 7/8/2 6/6/2
f 129/5/2 132/6/2 7/7/2
f 129/5/2 131/8/2 132/6/2
f 151/5/4 128/6/4 130/7/4
f 151/5/4 135/8/4 128/6/4
f 152/1/6 97/2/6 153/3/6
f 152/1/6 89/4/6 97/2/6
f 150/5/2 154/6/2 155/7/2
f 150/5/2 6/8/2 154/6/2
f 83/1/3 77/2/3 75/3/3
f 83/1/3 156/4/3 77/2/3
f 129/5/4 157/6/4 130/7/4
f 129/5/4 150/8/4 157/6/4
f 133/5/5 158/6/5 105/7/5
f 133/5/5 134/8/5 158/6/5
f 155/5/2 159/6/2 160/7/2
f 155/5/2 154/8/2 159/6/2
f 161/1/6 162/2/6 163/3/6
f 161/1/6 164/4/6 162/2/6
f 150/5/4 165/6/4 157/7/4
f 150/5/4 155/8/4 165/6/4
f 166/5/4 167/6/4 165/7/4
f 166/5/4 168/8/4 167/6/4
f 42/1/2 169/2/2 93/3/2
f 42/1/2 41/4/2 169/2/2
f 133/1/6 107/2/6 170/3/6
f 133/1/6 105/4/6 107/2/6
f 155/5/4 166/6/4 165/7/4
f 155/5/4 160/8/4 166/6/4
f 171/5/4 168/6/4 166/7/4
f 171/5/4 172/8/4 168/6/4
f 173/5/1 171/6/1 174/7/1
f 173/5/1 1/8/1 171/6/1
f 171/5/1 3/6/1 172/7/1
f 171/5/1 1/8/1 3/6/1
f 159/5/2 174/6/2 160/7/2
f 159/5/2 173/8/2 174/6/2
f 174/5/4 166/6/4 160/7/4
f 174/5/4 171/8/4 166/6/4
f 110/5/5 175/6/5 134/7/5
f 110/5/5 111/8/5 175/6/5
f 158/5/5 176/6/5 177/7/5
f 158/5/5 178/8/5 176/6/5
f 176/5/5 179/6/5 180/7/5
f 176/5/5 181/8/5 179/6/5
f 177/5/5 105/6/5 158/7/5
f 177/5/5 108/8/5 105/6/5
f 165/5/4 182/6/4 157/7/4
f 165/5/4 167/8/4 182/6/4
f 151/5/4 157/6/4 182/7/4
f 151/5/4 130/8/4 157/6/4
f 177/5/5 180/6/5 183/7/5
f 177/5/5 176/8/5 180/6/5
f 183/5/5 108/6/5 177/7/5
f 183/5/5 184/8/5 108/6/5
f 172/5/1 70/6/1 185/7/1
f 172/5/1 3/8/1 70/6/1
f 27/1/1 35/2/1 32/3/1
f 27/1/1 186/4/1 35/2/1
f 187/5/5 176/6/5 178/7/5
f 187/5/5 181/8/5 176/6/5
f 178/5/5 134/6/5 175/7/5
f 178/5/5 158/8/5 134/6/5
f 182/5/4 188/6/4 151/7/4
f 182/5/4 189/8/4 188/6/4
f 175/5/1 151/6/1 134/7/1
f 175/5/1 188/8/1 151/6/1
f 190/5/5 181/6/5 187/7/5
f 190/5/5 191/8/5 181/6/5
f 187/5/5 175/6/5 138/7/5
f 187/5/5 178/8/5 175/6/5
f 189/5/4 140/6/4 188/7/4
f 189/5/4 192/8/4 140/6/4
f 139/5/4 188/6/4 140/7/4
f 139/5/4 136/8/4 188/6/4
f 111/5/5 138/6/5 175/7/5
f 111/5/5 112/8/5 138/6/5
f 136/5/4 151/6/4 188/7/4
f 136/5/4 135/8/4 151/6/4
f 135/5/2 134/6/2 151/7/2
f 135/5/2 110/8/2 134/6/2
f 137/5/2 141/6/2 114/7/2
f 137/5/2 142/8/2 141/6/2
f 141/5/4 140/6/4 142/7/4
f 141/5/4 139/8/4 140/6/4
f 112/5/3 141/6/3 114/7/3
f 112/5/3 139/8/3 141/6/3
f 138/5/5 190/6/5 187/7/5
f 138/5/5 137/8/5 190/6/5
f 137/5/5 193/6/5 190/7/5
f 137/5/5 118/8/5 193/6/5
f 121/5/3 114/6/3 141/7/3
f 121/5/3 115/8/3 114/6/3
f 118/5/2 194/6/2 143/7/2
f 118/5/2 193/8/2 194/6/2
f 118/5/5 114/6/5 115/7/5
f 118/5/5 137/8/5 114/6/5
f 195/5/4 196/6/4 197/7/4
f 195/5/4 198/8/4 196/6/4
f 123/5/4 143/6/4 197/7/4
f 123/5/4 121/8/4 143/6/4
f 144/5/4 199/6/4 145/7/4
f 144/5/4 196/8/4 199/6/4
f 144/5/4 197/6/4 196/7/4
f 144/5/4 123/8/4 197/6/4
f 145/5/6 126/6/6 100/7/6
f 145/5/6 199/8/6 126/6/6
f 198/5/4 199/6/4 196/7/4
f 198/5/4 200/8/4 199/6/4
f 201/5/4 194/6/4 202/7/4
f 201/5/4 203/8/4 194/6/4
f 142/5/4 192/6/4 202/7/4
f 142/5/4 140/8/4 192/6/4
f 203/5/4 195/6/4 194/7/4
f 203/5/4 204/8/4 195/6/4
f 143/5/4 202/6/4 194/7/4
f 143/5/4 142/8/4 202/6/4
f 193/5/5 117/6/5 205/7/5
f 193/5/5 118/8/5 117/6/5
f 195/5/4 143/6/4 194/7/4
f 195/5/4 197/8/4 143/6/4
f 204/5/4 198/6/4 195/7/4
f 204/5/4 206/8/4 198/6/4
f 117/5/3 143/6/3 197/7/3
f 117/5/3 118/8/3 143/6/3
f 206/5/4 200/6/4 198/7/4
f 206/5/4 207/8/4 200/6/4
f 208/5/5 117/6/5 146/7/5
f 208/5/5 205/8/5 117/6/5
f 209/5/6 199/6/6 200/7/6
f 209/5/6 126/8/6 199/6/6
f 210/1/6 108/2/6 184/3/6
f 210/1/6 106/4/6 108/2/6
f 189/5/4 211/6/4 192/7/4
f 189/5/4 212/8/4 211/6/4
f 189/5/4 167/6/4 212/7/4
f 189/5/4 182/8/4 167/6/4
f 192/5/4 201/6/4 202/7/4
f 192/5/4 211/8/4 201/6/4
f 176/5/3 211/6/3 181/7/3
f 176/5/3 212/8/3 211/6/3
f 203/5/4 213/6/4 204/7/4
f 203/5/4 214/8/4 213/6/4
f 215/5/5 216/6/5 191/7/5
f 215/5/5 217/8/5 216/6/5
f 218/5/5 217/6/5 215/7/5
f 218/5/5 219/8/5 217/6/5
f 215/5/5 190/6/5 193/7/5
f 215/5/5 191/8/5 190/6/5
f 213/5/4 206/6/4 204/7/4
f 213/5/4 220/8/4 206/6/4
f 218/5/5 193/6/5 205/7/5
f 218/5/5 215/8/5 193/6/5
f 220/5/4 207/6/4 206/7/4
f 220/5/4 221/8/4 207/6/4
f 222/5/5 205/6/5 208/7/5
f 222/5/5 218/8/5 205/6/5
f 209/5/6 207/6/6 223/7/6
f 209/5/6 200/8/6 207/6/6
f 224/1/1 225/2/1 226/3/1
f 224/1/1 227/4/1 225/2/1
f 228/5/4 229/6/4 230/7/4
f 228/5/4 185/8/4 229/6/4
f 69/1/3 231/2/3 65/3/3
f 69/1/3 76/4/3 231/2/3
f 172/5/4 228/6/4 168/7/4
f 172/5/4 185/8/4 228/6/4
f 212/5/4 168/6/4 228/7/4
f 212/5/4 167/8/4 168/6/4
f 230/5/4 232/6/4 233/7/4
f 230/5/4 229/8/4 232/6/4
f 229/5/1 70/6/1 72/7/1
f 229/5/1 185/8/1 70/6/1
f 179/5/1 228/6/1 180/7/1
f 179/5/1 230/8/1 228/6/1
f 222/1/2 234/2/2 235/3/2
f 222/1/2 208/4/2 234/2/2
f 232/5/1 226/6/1 236/7/1
f 232/5/1 237/8/1 226/6/1
f 232/5/1 72/6/1 237/7/1
f 232/5/1 229/8/1 72/6/1
f 211/5/4 233/6/4 201/7/4
f 211/5/4 230/8/4 233/6/4
f 83/1/6 152/2/6 156/3/6
f 83/1/6 89/4/6 152/2/6
f 214/5/2 226/6/2 236/7/2
f 214/5/2 217/8/2 226/6/2
f 216/1/3 238/2/3 179/3/3
f 216/1/3 239/4/3 238/2/3
f 232/5/4 214/6/4 233/7/4
f 232/5/4 236/8/4 214/6/4
f 201/5/4 214/6/4 203/7/4
f 201/5/4 233/8/4 214/6/4
f 191/5/5 179/6/5 181/7/5
f 191/5/5 216/8/5 179/6/5
f 211/5/4 228/6/4 230/7/4
f 211/5/4 212/8/4 228/6/4
f 212/5/2 180/6/2 228/7/2
f 212/5/2 176/8/2 180/6/2
f 240/1/2 235/2/2 241/3/2
f 240/1/2 222/4/2 235/2/2
f 242/1/1 226/2/1 237/3/1
f 242/1/1 224/4/1 226/2/1
f 240/1/3 243/2/3 219/3/3
f 240/1/3 241/4/3 243/2/3
f 240/5/5 218/6/5 222/7/5
f 240/5/5 219/8/5 218/6/5
f 161/5/6 207/6/6 221/7/6
f 161/5/6 223/8/6 207/6/6
f 53/1/6 95/2/6 66/3/6
f 53/1/6 52/4/6 95/2/6
f 217/5/3 213/6/3 219/7/3
f 217/5/3 214/8/3 213/6/3
f 225/5/1 236/6/1 226/7/1
f 225/5/1 244/8/1 236/6/1
f 245/5/4 213/6/4 244/7/4
f 245/5/4 220/8/4 213/6/4
f 213/5/4 236/6/4 244/7/4
f 213/5/4 214/8/4 236/6/4
f 246/5/4 220/6/4 245/7/4
f 246/5/4 221/8/4 220/6/4
f 225/5/1 245/6/1 244/7/1
f 225/5/1 247/8/1 245/6/1
f 164/5/6 221/6/6 246/7/6
f 164/5/6 161/8/6 221/6/6
f 247/5/1 246/6/1 245/7/1
f 247/5/1 164/8/1 246/6/1
f 248/1/2 249/2/2 250/3/2
f 248/1/2 251/4/2 249/2/2
f 248/1/2 57/2/2 11/3/2
f 248/1/2 252/4/2 57/2/2
f 13/1/3 251/2/3 10/3/3
f 13/1/3 16/4/3 251/2/3
f 251/1/2 11/2/2 10/3/2
f 251/1/2 248/4/2 11/2/2
f 253/1/5 254/2/5 255/3/5
f 253/1/5 256/4/5 254/2/5
f 257/1/1 55/2/1 67/3/1
f 257/1/1 29/4/1 55/2/1
f 253/1/1 186/2/1 257/3/1
f 253/1/1 255/4/1 186/2/1
f 186/1/1 29/2/1 257/3/1
f 186/1/1 27/4/1 29/2/1
f 255/1/1 35/2/1 186/3/1
f 255/1/1 258/4/1 35/2/1
f 79/1/3 37/2/3 259/3/3
f 79/1/3 31/4/3 37/2/3
f 258/1/1 33/2/1 35/3/1
f 258/1/1 260/4/1 33/2/1
f 259/1/3 38/2/3 261/3/3
f 259/1/3 37/4/3 38/2/3
f 262/1/5 263/2/5 264/3/5
f 262/1/5 265/4/5 263/2/5
f 261/1/3 65/2/3 231/3/3
f 261/1/3 38/4/3 65/2/3
f 262/1/1 266/2/1 90/3/1
f 262/1/1 264/4/1 266/2/1
f 266/1/1 74/2/1 90/3/1
f 266/1/1 81/4/1 74/2/1
f 267/1/3 76/2/3 77/3/3
f 267/1/3 263/4/3 76/2/3
f 43/1/1 81/2/1 266/3/1
f 43/1/1 40/4/1 81/2/1
f 77/1/3 268/2/3 267/3/3
f 77/1/3 156/4/3 268/2/3
f 269/1/2 41/2/2 43/3/2
f 269/1/2 270/4/2 41/2/2
f 271/1/1 162/2/1 272/3/1
f 271/1/1 273/4/1 162/2/1
f 162/1/1 247/2/1 272/3/1
f 162/1/1 164/4/1 247/2/1
f 163/1/6 223/2/6 161/3/6
f 163/1/6 274/4/6 223/2/6
f 275/1/1 272/2/1 227/3/1
f 275/1/1 271/4/1 272/2/1
f 274/1/6 276/2/6 277/3/6
f 274/1/6 278/4/6 276/2/6
f 274/1/6 209/2/6 223/3/6
f 274/1/6 277/4/6 209/2/6
f 127/1/6 276/2/6 279/3/6
f 127/1/6 277/4/6 276/2/6
f 146/1/2 234/2/2 208/3/2
f 146/1/2 280/4/2 234/2/2
f 281/1/2 234/2/2 280/3/2
f 281/1/2 282/4/2 234/2/2
f 127/1/6 209/2/6 277/3/6
f 127/1/6 126/4/6 209/2/6
f 280/1/2 283/2/2 281/3/2
f 280/1/2 284/4/2 283/2/2
f 280/1/2 124/2/2 284/3/2
f 280/1/2 146/4/2 124/2/2
f 285/1/2 284/2/2 169/3/2
f 285/1/2 283/4/2 284/2/2
f 284/1/2 93/2/2 169/3/2
f 284/1/2 124/4/2 93/2/2
f 152/1/6 286/2/6 287/3/6
f 152/1/6 153/4/6 286/2/6
f 153/1/6 99/2/6 101/3/6
f 153/1/6 97/4/6 99/2/6
f 250/1/2 252/2/2 248/3/2
f 250/1/2 288/4/2 252/2/2
f 252/1/2 109/2/2 57/3/2
f 252/1/2 289/4/2 109/2/2
f 288/1/2 289/2/2 252/3/2
f 288/1/2 290/4/2 289/2/2
f 289/1/2 132/2/2 109/3/2
f 289/1/2 291/4/2 132/2/2
f 290/1/2 291/2/2 289/3/2
f 290/1/2 292/4/2 291/2/2
f 132/1/2 5/2/2 7/3/2
f 132/1/2 291/4/2 5/2/2
f 292/1/2 5/2/2 291/3/2
f 292/1/2 293/4/2 5/2/2
f 94/1/6 133/2/6 170/3/6
f 94/1/6 96/4/6 133/2/6
f 294/1/6 107/2/6 295/3/6
f 294/1/6 170/4/6 107/2/6
f 8/1/2 154/2/2 6/3/2
f 8/1/2 148/4/2 154/2/2
f 295/1/5 147/2/5 149/3/5
f 295/1/5 296/4/5 147/2/5
f 159/1/2 148/2/2 297/3/2
f 159/1/2 154/4/2 148/2/2
f 148/1/2 298/2/2 297/3/2
f 148/1/2 147/4/2 298/2/2
f 173/1/2 297/2/2 299/3/2
f 173/1/2 159/4/2 297/2/2
f 299/1/2 298/2/2 300/3/2
f 299/1/2 297/4/2 298/2/2
f 173/1/1 4/2/1 1/3/1
f 173/1/1 299/4/1 4/2/1
f 301/1/5 302/2/5 303/3/5
f 301/1/5 304/4/5 302/2/5
f 210/1/3 183/2/3 305/3/3
f 210/1/3 184/4/3 183/2/3
f 301/1/1 73/2/1 2/3/1
f 301/1/1 303/4/1 73/2/1
f 305/1/3 180/2/3 306/3/3
f 305/1/3 183/4/3 180/2/3
f 238/1/3 302/2/3 306/3/3
f 238/1/3 307/4/3 302/2/3
f 306/1/3 179/2/3 238/3/3
f 306/1/3 180/4/3 179/2/3
f 239/1/3 307/2/3 238/3/3
f 239/1/3 308/4/3 307/2/3
f 242/1/1 72/2/1 71/3/1
f 242/1/1 237/4/1 72/2/1
f 309/1/1 227/2/1 224/3/1
f 309/1/1 275/4/1 227/2/1
f 310/1/3 216/2/3 217/3/3
f 310/1/3 239/4/3 216/2/3
f 272/1/1 225/2/1 227/3/1
f 272/1/1 247/4/1 225/2/1
f 243/1/3 217/2/3 219/3/3
f 243/1/3 310/4/3 217/2/3
f 300/1/5 311/2/5 312/3/5
f 300/1/5 298/4/5 311/2/5
f 210/1/6 296/2/6 106/3/6
f 210/1/6 311/4/6 296/2/6
f 299/1/1 312/2/1 4/3/1
f 299/1/1 300/4/1 312/2/1
f 305/1/3 311/2/3 210/3/3
f 305/1/3 304/4/3 311/2/3
f 304/1/5 312/2/5 311/3/5
f 304/1/5 301/4/5 312/2/5
f 301/1/1 4/2/1 312/3/1
f 301/1/1 2/4/1 4/2/1
f 73/1/1 313/2/1 71/3/1
f 73/1/1 303/4/1 313/2/1
f 302/1/3 305/2/3 306/3/3
f 302/1/3 304/4/3 305/2/3
f 71/1/1 314/2/1 242/3/1
f 71/1/1 313/4/1 314/2/1
f 313/1/5 302/2/5 307/3/5
f 313/1/5 303/4/5 302/2/5
f 242/1/1 309/2/1 224/3/1
f 242/1/1 314/4/1 309/2/1
f 314/1/5 307/2/5 308/3/5
f 314/1/5 313/4/5 307/2/5
f 309/1/5 315/2/5 275/3/5
f 309/1/5 316/4/5 315/2/5
f 309/1/5 308/2/5 316/3/5
f 309/1/5 314/4/5 308/2/5
f 296/1/5 298/2/5 147/3/5
f 296/1/5 311/4/5 298/2/5
f 294/1/5 149/2/5 293/3/5
f 294/1/5 295/4/5 149/2/5
f 239/1/3 316/2/3 308/3/3
f 239/1/3 310/4/3 316/2/3
f 106/1/6 295/2/6 107/3/6
f 106/1/6 296/4/6 295/2/6
f 275/1/5 317/2/5 271/3/5
f 275/1/5 315/4/5 317/2/5
f 315/1/3 310/2/3 243/3/3
f 315/1/3 316/4/3 310/2/3
f 271/1/5 318/2/5 273/3/5
f 271/1/5 317/4/5 318/2/5
f 317/1/3 243/2/3 241/3/3
f 317/1/3 315/4/3 243/2/3
f 273/1/6 163/2/6 162/3/6
f 273/1/6 318/4/6 163/2/6
f 235/1/2 317/2/2 241/3/2
f 235/1/2 319/4/2 317/2/2
f 319/1/5 318/2/5 317/3/5
f 319/1/5 278/4/5 318/2/5
f 278/1/6 163/2/6 318/3/6
f 278/1/6 274/4/6 163/2/6
f 278/1/5 282/2/5 276/3/5
f 278/1/5 319/4/5 282/2/5
f 319/1/2 234/2/2 282/3/2
f 319/1/2 235/4/2 234/2/2
f 279/1/5 282/2/5 281/3/5
f 279/1/5 276/4/5 282/2/5
f 279/1/6 102/2/6 127/3/6
f 279/1/6 320/4/6 102/2/6
f 281/1/5 320/2/5 279/3/5
f 281/1/5 283/4/5 320/2/5
f 101/1/6 320/2/6 321/3/6
f 101/1/6 102/4/6 320/2/6
f 321/1/5 283/2/5 285/3/5
f 321/1/5 320/4/5 283/2/5
f 41/1/2 285/2/2 169/3/2
f 41/1/2 270/4/2 285/2/2
f 270/1/5 321/2/5 285/3/5
f 270/1/5 286/4/5 321/2/5
f 286/1/6 101/2/6 321/3/6
f 286/1/6 153/4/6 101/2/6
f 287/1/5 270/2/5 269/3/5
f 287/1/5 286/4/5 270/2/5
f 264/1/5 267/2/5 269/3/5
f 264/1/5 263/4/5 267/2/5
f 267/1/5 287/2/5 269/3/5
f 267/1/5 268/4/5 287/2/5
f 268/1/6 152/2/6 287/3/6
f 268/1/6 156/4/6 152/2/6
f 250/1/5 322/2/5 323/3/5
f 250/1/5 249/4/5 322/2/5
f 249/1/3 16/2/3 322/3/3
f 249/1/3 251/4/3 16/2/3
f 250/1/5 324/2/5 288/3/5
f 250/1/5 323/4/5 324/2/5
f 17/1/3 322/2/3 16/3/3
f 17/1/3 256/4/3 322/2/3
f 256/1/5 323/2/5 322/3/5
f 256/1/5 253/4/5 323/2/5
f 253/1/1 67/2/1 323/3/1
f 253/1/1 257/4/1 67/2/1
f 255/1/5 325/2/5 258/3/5
f 255/1/5 254/4/5 325/2/5
f 254/1/3 17/2/3 79/3/3
f 254/1/3 256/4/3 17/2/3
f 258/1/5 326/2/5 260/3/5
f 258/1/5 325/4/5 326/2/5
f 325/1/3 79/2/3 259/3/3
f 325/1/3 254/4/3 79/2/3
f 231/1/3 326/2/3 261/3/3
f 231/1/3 265/4/3 326/2/3
f 326/1/3 259/2/3 261/3/3
f 326/1/3 325/4/3 259/2/3
f 265/1/5 260/2/5 326/3/5
f 265/1/5 262/4/5 260/2/5
f 262/1/1 33/2/1 260/3/1
f 262/1/1 90/4/1 33/2/1
f 264/1/1 43/2/1 266/3/1
f 264/1/1 269/4/1 43/2/1
f 263/1/3 231/2/3 76/3/3
f 263/1/3 265/4/3 231/2/3
f 288/1/5 327/2/5 290/3/5
f 288/1/5 324/4/5 327/2/5
f 324/1/6 67/2/6 66/3/6
f 324/1/6 323/4/6 67/2/6
f 290/1/5 328/2/5 292/3/5
f 290/1/5 327/4/5 328/2/5
f 327/1/6 66/2/6 95/3/6
f 327/1/6 324/4/6 66/2/6
f 292/1/5 294/2/5 293/3/5
f 292/1/5 328/4/5 294/2/5
f 328/1/6 95/2/6 94/3/6
f 328/1/6 327/4/6 95/2/6
f 149/1/2 5/2/2 293/3/2
f 149/1/2 8/4/2 5/2/2
f 294/1/6 94/2/6 170/3/6
f 294/1/6 328/4/6 94/2/6
